%TF.GenerationSoftware,KiCad,Pcbnew,8.0.6*%
%TF.CreationDate,2024-10-22T01:49:15-07:00*%
%TF.ProjectId,lintilla,6c696e74-696c-46c6-912e-6b696361645f,v1.0*%
%TF.SameCoordinates,Original*%
%TF.FileFunction,Soldermask,Bot*%
%TF.FilePolarity,Negative*%
%FSLAX46Y46*%
G04 Gerber Fmt 4.6, Leading zero omitted, Abs format (unit mm)*
G04 Created by KiCad (PCBNEW 8.0.6) date 2024-10-22 01:49:15*
%MOMM*%
%LPD*%
G01*
G04 APERTURE LIST*
G04 Aperture macros list*
%AMRotRect*
0 Rectangle, with rotation*
0 The origin of the aperture is its center*
0 $1 length*
0 $2 width*
0 $3 Rotation angle, in degrees counterclockwise*
0 Add horizontal line*
21,1,$1,$2,0,0,$3*%
G04 Aperture macros list end*
%ADD10C,0.500000*%
%ADD11C,1.000000*%
%ADD12RotRect,1.200000X1.200000X135.000000*%
%ADD13RotRect,1.200000X1.200000X187.500000*%
%ADD14C,1.701800*%
%ADD15C,3.000000*%
%ADD16C,3.429000*%
%ADD17R,2.600000X2.600000*%
%ADD18RotRect,1.200000X1.200000X182.500000*%
%ADD19RotRect,2.600000X2.600000X165.000000*%
%ADD20RotRect,2.600000X2.600000X135.000000*%
%ADD21RotRect,2.600000X2.600000X187.500000*%
%ADD22RotRect,1.200000X1.200000X192.500000*%
%ADD23RotRect,2.600000X2.600000X182.500000*%
%ADD24C,0.700000*%
%ADD25C,4.400000*%
%ADD26RotRect,2.600000X2.600000X192.500000*%
%ADD27R,1.200000X1.200000*%
%ADD28RotRect,1.200000X1.200000X165.000000*%
%ADD29RotRect,1.200000X1.200000X150.000000*%
%ADD30O,2.750000X1.800000*%
%ADD31R,2.750000X1.800000*%
%ADD32C,0.750000*%
%ADD33R,2.000000X2.000000*%
%ADD34R,0.900000X0.900000*%
%ADD35R,0.900000X1.250000*%
%ADD36C,2.000000*%
%ADD37RotRect,2.600000X2.600000X150.000000*%
%ADD38R,1.550000X1.000000*%
G04 APERTURE END LIST*
D10*
X85811150Y-34593581D02*
X84383938Y-34655895D01*
X86133980Y-35437446D02*
X85004074Y-32483920D01*
X85004074Y-32483920D02*
X84135884Y-35524684D01*
X82708672Y-35586998D02*
X82987883Y-35431814D01*
X82987883Y-35431814D02*
X83118141Y-35140140D01*
X83118141Y-35140140D02*
X83005977Y-32571159D01*
X81138738Y-35655543D02*
X81417949Y-35500359D01*
X81417949Y-35500359D02*
X81548208Y-35208685D01*
X81548208Y-35208685D02*
X81436044Y-32639704D01*
X79996968Y-35705393D02*
X79909730Y-33707297D01*
X79866110Y-32708249D02*
X80015063Y-32844739D01*
X80015063Y-32844739D02*
X79878573Y-32993691D01*
X79878573Y-32993691D02*
X79729620Y-32857201D01*
X79729620Y-32857201D02*
X79866110Y-32708249D01*
X79866110Y-32708249D02*
X79878573Y-32993691D01*
X78910682Y-33750916D02*
X77768912Y-33800767D01*
X78438899Y-32770562D02*
X78551063Y-35339543D01*
X78551063Y-35339543D02*
X78420805Y-35631217D01*
X78420805Y-35631217D02*
X78141594Y-35786401D01*
X78141594Y-35786401D02*
X77856151Y-35798864D01*
X76769864Y-33844386D02*
X76857103Y-35842483D01*
X76782327Y-34129829D02*
X76633374Y-33993339D01*
X76633374Y-33993339D02*
X76341700Y-33863081D01*
X76341700Y-33863081D02*
X75913537Y-33881775D01*
X75913537Y-33881775D02*
X75634326Y-34036958D01*
X75634326Y-34036958D02*
X75504067Y-34328632D01*
X75504067Y-34328632D02*
X75572612Y-35898565D01*
X74145400Y-35960878D02*
X74058161Y-33962782D01*
X74014542Y-32963734D02*
X74163494Y-33100224D01*
X74163494Y-33100224D02*
X74027005Y-33249176D01*
X74027005Y-33249176D02*
X73878052Y-33112686D01*
X73878052Y-33112686D02*
X74014542Y-32963734D01*
X74014542Y-32963734D02*
X74027005Y-33249176D01*
X72290025Y-36041886D02*
X72569236Y-35886702D01*
X72569236Y-35886702D02*
X72699495Y-35595028D01*
X72699495Y-35595028D02*
X72587331Y-33026047D01*
D11*
%TO.C,T1*%
X133680187Y-42441784D03*
X136680183Y-42441782D03*
%TD*%
D12*
%TO.C,SW21*%
X179264031Y-124815247D03*
X176930579Y-122481795D03*
%TD*%
D13*
%TO.C,SW8*%
X82456891Y-65280525D03*
X79185123Y-65711261D03*
%TD*%
D14*
%TO.C,S16*%
X143680184Y-86991791D03*
D15*
X143180178Y-90741795D03*
X138180184Y-92941791D03*
D16*
X138180184Y-86991791D03*
D15*
X133180184Y-90741793D03*
D14*
X132680184Y-86991791D03*
D17*
X141455184Y-92941791D03*
X129905184Y-90741791D03*
%TD*%
D18*
%TO.C,SW6*%
X57650104Y-37554610D03*
X54353244Y-37698554D03*
%TD*%
D13*
%TO.C,SW9*%
X80107416Y-47434520D03*
X76835648Y-47865256D03*
%TD*%
D14*
%TO.C,S19*%
X145386071Y-107450961D03*
D15*
X143932535Y-110943775D03*
X138533506Y-111774715D03*
D16*
X140073479Y-106027456D03*
D15*
X134273279Y-108355586D03*
D14*
X134760887Y-104603951D03*
D19*
X141696913Y-112622347D03*
X131109871Y-107507950D03*
%TD*%
D14*
%TO.C,S21*%
X179334731Y-130189248D03*
D15*
X176329527Y-132487345D03*
X171238359Y-130507446D03*
D16*
X175445644Y-126300161D03*
D15*
X169258460Y-125416280D03*
D14*
X171556557Y-122411074D03*
D20*
X173554132Y-132823220D03*
X166942686Y-123100500D03*
%TD*%
D14*
%TO.C,S8*%
X86763428Y-68495916D03*
D15*
X86757179Y-72279099D03*
X82087112Y-75112907D03*
D16*
X81310481Y-69213810D03*
D15*
X76842730Y-73584361D03*
D14*
X75857534Y-69931704D03*
D21*
X85334092Y-74685434D03*
X73595748Y-74011832D03*
%TD*%
D22*
%TO.C,SW3*%
X69040445Y-98966288D03*
X65818669Y-99680538D03*
%TD*%
D14*
%TO.C,S11*%
X105903548Y-57233995D03*
D15*
X105567592Y-61002239D03*
X100668318Y-63418239D03*
D16*
X100408783Y-57473902D03*
D15*
X95577115Y-61438432D03*
D14*
X94914018Y-57713809D03*
D23*
X103940201Y-63275385D03*
X92305232Y-61581283D03*
%TD*%
D24*
%TO.C,*%
X66493442Y-34916360D03*
X66925365Y-33729664D03*
X67027148Y-36060895D03*
X68069900Y-33195958D03*
D25*
X68141872Y-34844388D03*
D24*
X68213844Y-36492818D03*
X69256596Y-33627881D03*
X69358379Y-35959112D03*
X69790302Y-34772416D03*
%TD*%
D14*
%TO.C,S4*%
X69714916Y-84220774D03*
D15*
X70038417Y-87990106D03*
X65633104Y-91220153D03*
D16*
X64345288Y-85411192D03*
D15*
X60275457Y-90154500D03*
D14*
X58975660Y-86601610D03*
D26*
X68830471Y-90511314D03*
X57078087Y-90863340D03*
%TD*%
D14*
%TO.C,S13*%
X125180178Y-83908455D03*
D15*
X124680172Y-87658459D03*
X119680178Y-89858455D03*
D16*
X119680178Y-83908455D03*
D15*
X114680178Y-87658457D03*
D14*
X114180178Y-83908455D03*
D17*
X122955178Y-89858455D03*
X111405178Y-87658455D03*
%TD*%
D14*
%TO.C,S12*%
X105318203Y-39242403D03*
D15*
X104982247Y-43010647D03*
X100082973Y-45426647D03*
D16*
X99823438Y-39482310D03*
D15*
X94991770Y-43446840D03*
D14*
X94328673Y-39722217D03*
D23*
X103354856Y-45283793D03*
X91719887Y-43589691D03*
%TD*%
D27*
%TO.C,SW17*%
X139830187Y-65241791D03*
X136530187Y-65241791D03*
%TD*%
D28*
%TO.C,SW19*%
X142637824Y-102832286D03*
X139450268Y-101978186D03*
%TD*%
D29*
%TO.C,SW20*%
X162397989Y-111412801D03*
X159540105Y-109762801D03*
%TD*%
D30*
%TO.C,MCU1*%
X156060176Y-43371778D03*
X156060176Y-45911778D03*
X156060176Y-48451778D03*
X156060178Y-50991779D03*
X156060176Y-53531778D03*
X156060176Y-56071778D03*
X156060176Y-58611778D03*
X172300176Y-58611778D03*
X172300176Y-56071778D03*
X172300176Y-53531778D03*
X172300174Y-50991777D03*
X172300176Y-48451778D03*
D31*
X172300176Y-45911778D03*
D30*
X172300176Y-43371778D03*
%TD*%
D32*
%TO.C,B1*%
X116680184Y-38033455D03*
X116680184Y-40783455D03*
%TD*%
D27*
%TO.C,SW15*%
X121330183Y-44158458D03*
X118030183Y-44158458D03*
%TD*%
D22*
%TO.C,SW5*%
X61248611Y-63819630D03*
X58026835Y-64533880D03*
%TD*%
D18*
%TO.C,SW10*%
X102478975Y-71647100D03*
X99182115Y-71791044D03*
%TD*%
D24*
%TO.C,*%
X171907890Y-110841163D03*
X172909781Y-110072386D03*
X171743055Y-112093214D03*
X174161832Y-110237221D03*
D25*
X173336832Y-111666163D03*
D24*
X172511832Y-113095105D03*
X174930609Y-111239112D03*
X173763883Y-113259940D03*
X174765774Y-112491163D03*
%TD*%
D33*
%TO.C,PAD6*%
X154180190Y-104991788D03*
%TD*%
D34*
%TO.C,T2*%
X131480185Y-41341780D03*
X131480185Y-43541786D03*
X138880185Y-41341780D03*
X138880185Y-43541786D03*
D35*
X132930185Y-44516783D03*
X135930185Y-44516783D03*
X137430183Y-44516784D03*
%TD*%
D14*
%TO.C,S2*%
X49851577Y-80097256D03*
D15*
X50175078Y-83866588D03*
X45769765Y-87096635D03*
D16*
X44481949Y-81287674D03*
D15*
X40412118Y-86030982D03*
D14*
X39112321Y-82478092D03*
D26*
X48967132Y-86387796D03*
X37214748Y-86739822D03*
%TD*%
D22*
%TO.C,SW1*%
X49177104Y-94842765D03*
X45955328Y-95557015D03*
%TD*%
D14*
%TO.C,S15*%
X125180178Y-47908454D03*
D15*
X124680172Y-51658458D03*
X119680178Y-53858454D03*
D16*
X119680178Y-47908454D03*
D15*
X114680178Y-51658456D03*
D14*
X114180178Y-47908454D03*
D17*
X122955178Y-53858454D03*
X111405178Y-51658454D03*
%TD*%
D27*
%TO.C,SW16*%
X139830176Y-83241786D03*
X136530176Y-83241786D03*
%TD*%
D14*
%TO.C,S1*%
X53747489Y-97670569D03*
D15*
X54070990Y-101439901D03*
X49665677Y-104669948D03*
D16*
X48377861Y-98860987D03*
D15*
X44308030Y-103604295D03*
D14*
X43008233Y-100051405D03*
D26*
X52863044Y-103961109D03*
X41110660Y-104313135D03*
%TD*%
D13*
%TO.C,SW7*%
X84806365Y-83126538D03*
X81534597Y-83557274D03*
%TD*%
D36*
%TO.C,PAD2*%
X159180178Y-66991793D03*
%TD*%
D24*
%TO.C,*%
X147780188Y-44991792D03*
X148263462Y-43825066D03*
X148263462Y-46158518D03*
X149430188Y-43341792D03*
D25*
X149430188Y-44991792D03*
D24*
X149430188Y-46641792D03*
X150596914Y-43825066D03*
X150596914Y-46158518D03*
X151080188Y-44991792D03*
%TD*%
D27*
%TO.C,SW13*%
X121330183Y-80158460D03*
X118030183Y-80158460D03*
%TD*%
D14*
%TO.C,S5*%
X65819006Y-66647456D03*
D15*
X66142507Y-70416788D03*
X61737194Y-73646835D03*
D16*
X60449378Y-67837874D03*
D15*
X56379547Y-72581182D03*
D14*
X55079750Y-69028292D03*
D26*
X64934561Y-72937996D03*
X53182177Y-73290022D03*
%TD*%
D36*
%TO.C,PAD4*%
X169180184Y-66991786D03*
%TD*%
D14*
%TO.C,S10*%
X106488886Y-75225593D03*
D15*
X106152930Y-78993837D03*
X101253656Y-81409837D03*
D16*
X100994121Y-75465500D03*
D15*
X96162453Y-79430030D03*
D14*
X95499356Y-75705407D03*
D23*
X104525539Y-81266983D03*
X92890570Y-79572881D03*
%TD*%
D14*
%TO.C,S6*%
X61660008Y-41133096D03*
D15*
X61324052Y-44901340D03*
X56424778Y-47317340D03*
D16*
X56165243Y-41373003D03*
D15*
X51333575Y-45337533D03*
D14*
X50670478Y-41612910D03*
D23*
X59696661Y-47174486D03*
X48061692Y-45480384D03*
%TD*%
D14*
%TO.C,S18*%
X143680181Y-50991783D03*
D15*
X143180175Y-54741787D03*
X138180181Y-56941783D03*
D16*
X138180181Y-50991783D03*
D15*
X133180181Y-54741785D03*
D14*
X132680181Y-50991783D03*
D17*
X141455181Y-56941783D03*
X129905181Y-54741783D03*
%TD*%
D14*
%TO.C,S20*%
X163857177Y-116585391D03*
D15*
X161549164Y-119582986D03*
X156119037Y-118988242D03*
D16*
X159094037Y-113835391D03*
D15*
X152888910Y-114582988D03*
D14*
X154330897Y-111085391D03*
D37*
X158955270Y-120625742D03*
X150052677Y-112945486D03*
%TD*%
D18*
%TO.C,SW11*%
X101893645Y-53655506D03*
X98596785Y-53799450D03*
%TD*%
D14*
%TO.C,S3*%
X73610829Y-101794112D03*
D15*
X73934330Y-105563444D03*
X69529017Y-108793491D03*
D16*
X68241201Y-102984530D03*
D15*
X64171370Y-107727838D03*
D14*
X62871573Y-104174948D03*
D26*
X72726384Y-108084652D03*
X60974000Y-108436678D03*
%TD*%
D36*
%TO.C,PAD5*%
X150180179Y-95991791D03*
%TD*%
D32*
%TO.C,B2*%
X116680184Y-38033455D03*
X116680184Y-40783455D03*
D38*
X114055184Y-38558455D03*
X119305184Y-38558455D03*
X114055184Y-40258455D03*
X119305184Y-40258455D03*
%TD*%
D14*
%TO.C,S14*%
X125180182Y-65908459D03*
D15*
X124680176Y-69658463D03*
X119680182Y-71858459D03*
D16*
X119680182Y-65908459D03*
D15*
X114680182Y-69658461D03*
D14*
X114180182Y-65908459D03*
D17*
X122955182Y-71858459D03*
X111405182Y-69658459D03*
%TD*%
D18*
%TO.C,SW12*%
X101308304Y-35663912D03*
X98011444Y-35807856D03*
%TD*%
D27*
%TO.C,SW14*%
X121330189Y-62158456D03*
X118030189Y-62158456D03*
%TD*%
D14*
%TO.C,S17*%
X143680188Y-68991794D03*
D15*
X143180182Y-72741798D03*
X138180188Y-74941794D03*
D16*
X138180188Y-68991794D03*
D15*
X133180188Y-72741796D03*
D14*
X132680188Y-68991794D03*
D17*
X141455188Y-74941794D03*
X129905188Y-72741794D03*
%TD*%
D14*
%TO.C,S9*%
X84413954Y-50649913D03*
D15*
X84407705Y-54433096D03*
X79737638Y-57266904D03*
D16*
X78961007Y-51367807D03*
D15*
X74493256Y-55738358D03*
D14*
X73508060Y-52085701D03*
D21*
X82984618Y-56839431D03*
X71246274Y-56165829D03*
%TD*%
D14*
%TO.C,S7*%
X89112897Y-86341919D03*
D15*
X89106648Y-90125102D03*
X84436581Y-92958910D03*
D16*
X83659950Y-87059813D03*
D15*
X79192199Y-91430364D03*
D14*
X78207003Y-87777707D03*
D21*
X87683561Y-92531437D03*
X75945217Y-91857835D03*
%TD*%
D24*
%TO.C,*%
X79888574Y-106548043D03*
X80107866Y-105304374D03*
X80612918Y-107582514D03*
X81142337Y-104580030D03*
D25*
X81499462Y-106190918D03*
D24*
X81856587Y-107801806D03*
X82386006Y-104799322D03*
X82891058Y-107077462D03*
X83110350Y-105833793D03*
%TD*%
D22*
%TO.C,SW4*%
X65144517Y-81392972D03*
X61922741Y-82107222D03*
%TD*%
%TO.C,SW2*%
X45281189Y-77269431D03*
X42059413Y-77983681D03*
%TD*%
D27*
%TO.C,SW18*%
X139830188Y-47241786D03*
X136530188Y-47241786D03*
%TD*%
M02*
