M48
; DRILL file {KiCad 8.0.6} date 2024-10-22T01:48:53-0700
; FORMAT={-:-/ absolute / inch / decimal}
; #@! TF.CreationDate,2024-10-22T01:48:53-07:00
; #@! TF.GenerationSoftware,Kicad,Pcbnew,8.0.6
; #@! TF.FileFunction,Plated,1,2,PTH
FMAT,2
INCH
; #@! TA.AperFunction,Plated,PTH,ComponentDrill
T1C0.0118
; #@! TA.AperFunction,Plated,PTH,ComponentDrill
T2C0.0157
; #@! TA.AperFunction,Plated,PTH,ComponentDrill
T3C0.0866
%
G90
G05
T1
X1.4651Y-3.415
X1.6185Y-4.1068
X1.6559Y-3.0702
X1.7827Y-3.0421
X1.8093Y-3.7621
X1.8922Y-1.7906
X1.9278Y-3.4011
X1.9361Y-3.734
X2.0812Y-4.093
X2.0938Y-2.8854
X2.1399Y-1.4842
X2.2472Y-3.5773
X2.2697Y-1.4785
X2.2845Y-2.5407
X2.3503Y-1.8573
X2.4006Y-4.2692
X2.4114Y-2.5126
X2.4379Y-3.2326
X2.5565Y-2.8716
X2.5647Y-3.2044
X2.5913Y-3.9244
X2.7099Y-3.5634
X2.7181Y-3.8963
X2.805Y-2.2113
X2.8632Y-4.2553
X2.8975Y-2.9139
X2.99Y-3.6165
X3.025Y-1.8845
X3.1175Y-2.5871
X3.1538Y-1.8675
X3.21Y-3.2897
X3.2463Y-2.5701
X3.2671Y-2.2378
X3.3388Y-3.2727
X3.3596Y-2.9404
X3.4521Y-3.643
X3.611Y-1.7161
X3.6341Y-2.4245
X3.6571Y-3.1328
X3.8587Y-1.4098
X3.8818Y-2.1181
X3.9048Y-2.8264
X3.9885Y-1.4041
X4.0116Y-2.1124
X4.0346Y-2.8208
X4.0691Y-1.7828
X4.0921Y-2.4912
X4.1152Y-3.1995
X4.386Y-2.0338
X4.386Y-3.4511
X4.386Y-2.7425
X4.4904Y-1.518
X4.4904Y-1.518
X4.4904Y-1.585
X4.4904Y-1.585
X4.6469Y-1.7385
X4.6469Y-3.1558
X4.6469Y-2.4472
X4.6971Y-1.518
X4.6971Y-1.518
X4.6971Y-1.585
X4.6971Y-1.585
X4.7768Y-1.7385
X4.7768Y-3.1558
X4.7768Y-2.4472
X4.8408Y-2.1204
X4.8408Y-3.5377
X4.8408Y-2.8291
X5.0169Y-2.6066
X5.076Y-3.7792
X5.1144Y-2.1552
X5.1144Y-3.5725
X5.1144Y-2.8639
X5.1618Y-4.2326
X5.2335Y-1.7526
X5.2925Y-1.7526
X5.3516Y-1.7526
X5.3752Y-3.2772
X5.3752Y-2.5686
X5.3752Y-1.8599
X5.4106Y-1.7526
X5.4902Y-4.0149
X5.5051Y-3.2772
X5.5051Y-2.5686
X5.5051Y-1.8599
X5.5691Y-2.2418
X5.5691Y-3.6591
X5.5691Y-2.9505
X5.5786Y-4.434
X5.6157Y-4.0485
X5.7453Y-2.667
X5.8732Y-2.2576
X5.8732Y-2.3576
X5.885Y-2.1576
X5.885Y-2.4076
X5.8969Y-2.0576
X5.8969Y-2.4576
X5.9076Y-4.4467
X5.9087Y-1.9576
X5.9087Y-2.5076
X5.9126Y-3.7792
X5.9205Y-1.9076
X5.9205Y-2.5576
X6.0307Y-2.0076
X6.0307Y-1.9076
X6.0307Y-2.1076
X6.0307Y-2.2076
X6.0307Y-2.3076
X6.0307Y-1.8576
X6.0701Y-2.0576
X6.0701Y-2.2576
X6.0701Y-1.9576
X6.0701Y-2.1576
X6.0701Y-4.1335
X6.1441Y-2.3717
X6.1488Y-2.6079
X6.1488Y-2.667
X6.2581Y-4.749
X6.2811Y-4.3214
X6.3936Y-4.3863
X6.5725Y-4.8465
X6.8328Y-5.2293
X6.9658Y-4.8221
X7.0576Y-4.914
T2
X2.6179Y-1.3747
X2.6349Y-1.3279
X2.6389Y-1.4197
X2.6799Y-1.3069
X2.6856Y-1.4367
X2.7266Y-1.3239
X2.7306Y-1.4157
X2.7476Y-1.369
X3.1452Y-4.1948
X3.1539Y-4.1458
X3.1737Y-4.2355
X3.1946Y-4.1173
X3.2227Y-4.2442
X3.2435Y-4.126
X3.2634Y-4.2156
X3.2721Y-4.1667
X5.8181Y-1.7713
X5.8371Y-1.7254
X5.8371Y-1.8173
X5.8831Y-1.7064
X5.8831Y-1.8363
X5.929Y-1.7254
X5.929Y-1.8173
X5.948Y-1.7713
X6.7615Y-4.4131
X6.768Y-4.3638
X6.7918Y-4.4526
X6.8075Y-4.3336
X6.8411Y-4.4591
X6.8568Y-4.34
X6.8805Y-4.4288
X6.887Y-4.3795
T3
X2.6828Y-1.3718
X3.2086Y-4.1807
X5.8831Y-1.7713
X6.8243Y-4.3963
M30
