M48
; DRILL file {KiCad 8.0.5} date 2024-09-24T01:01:39-0700
; FORMAT={-:-/ absolute / inch / decimal}
; #@! TF.CreationDate,2024-09-24T01:01:39-07:00
; #@! TF.GenerationSoftware,Kicad,Pcbnew,8.0.5
; #@! TF.FileFunction,NonPlated,1,2,NPTH
FMAT,2
INCH
; #@! TA.AperFunction,NonPlated,NPTH,ComponentDrill
T1C0.0295
; #@! TA.AperFunction,NonPlated,NPTH,ComponentDrill
T2C0.0354
; #@! TA.AperFunction,NonPlated,NPTH,ComponentDrill
T3C0.0670
; #@! TA.AperFunction,NonPlated,NPTH,ComponentDrill
T4C0.1181
; #@! TA.AperFunction,NonPlated,NPTH,ComponentDrill
T5C0.1350
%
G90
G05
T1
X4.5449Y-1.4486
X4.5449Y-1.4486
X4.5449Y-1.5569
X4.5449Y-1.5569
T2
X5.2142Y-1.6222
X5.3323Y-1.6222
T3
X1.4911Y-3.1984
X1.6445Y-3.8903
X1.9139Y-3.1047
X1.9461Y-1.5896
X2.0673Y-3.7965
X2.1197Y-2.6689
X2.2731Y-3.3608
X2.3788Y-1.5707
X2.4265Y-4.0526
X2.5425Y-2.5752
X2.6959Y-3.267
X2.8453Y-2.0019
X2.8493Y-3.9589
X2.9378Y-2.7045
X3.0303Y-3.4071
X3.2746Y-1.9453
X3.3671Y-2.6479
X3.4596Y-3.3505
X3.665Y-1.5151
X3.688Y-2.2234
X3.7111Y-2.9318
X4.0976Y-1.4962
X4.1207Y-2.2046
X4.1437Y-2.9129
X4.4465Y-3.2547
X4.4465Y-1.8374
X4.4465Y-2.5461
X4.8796Y-3.2547
X4.8796Y-1.8374
X4.8796Y-2.5461
X5.1749Y-2.6675
X5.1749Y-3.3761
X5.1749Y-1.9588
X5.2568Y-4.0695
X5.6079Y-2.6675
X5.6079Y-3.3761
X5.6079Y-1.9588
X5.6751Y-4.1816
X6.0273Y-4.3247
X6.4023Y-4.5412
X6.7054Y-4.7706
X7.0117Y-5.0768
T4
X1.5423Y-3.3383
X1.6956Y-4.0302
X1.7532Y-3.3803
X1.9066Y-4.0721
X1.9266Y-3.2531
X1.9722Y-1.7362
X2.08Y-3.9449
X2.1709Y-2.8088
X2.1727Y-1.8141
X2.3243Y-3.5006
X2.3656Y-1.719
X2.3818Y-2.8507
X2.4777Y-4.1925
X2.5352Y-3.5426
X2.5553Y-2.7236
X2.6886Y-4.2345
X2.7087Y-3.4154
X2.862Y-4.1073
X2.884Y-2.1457
X2.9765Y-2.8483
X3.069Y-3.5509
X3.0905Y-2.2059
X3.183Y-2.9085
X3.2744Y-2.0943
X3.2755Y-3.6111
X3.3669Y-2.7969
X3.4594Y-3.4995
X3.6911Y-1.6618
X3.7141Y-2.3701
X3.7372Y-3.0784
X3.8915Y-1.7397
X3.9146Y-2.448
X3.9376Y-3.1564
X4.0844Y-1.6446
X4.1074Y-2.3529
X4.1305Y-3.0612
X4.4662Y-3.4024
X4.4662Y-1.985
X4.4662Y-2.6937
X4.6631Y-3.489
X4.6631Y-2.0717
X4.6631Y-2.7803
X4.8599Y-3.4024
X4.8599Y-1.985
X4.8599Y-2.6937
X5.1946Y-2.8151
X5.1946Y-3.5238
X5.1946Y-2.1064
X5.2376Y-4.2172
X5.3914Y-2.9017
X5.3914Y-3.6104
X5.3914Y-2.1931
X5.4053Y-4.3518
X5.5883Y-2.8151
X5.5883Y-3.5238
X5.5883Y-2.1064
X5.6179Y-4.3191
X5.9705Y-4.4624
X6.0977Y-4.6358
X6.3114Y-4.6592
X6.615Y-4.8889
X6.6929Y-5.0893
X6.8933Y-5.1673
T5
X1.7025Y-3.1516
X1.8559Y-3.8434
X2.1625Y-1.5801
X2.3311Y-2.622
X2.4845Y-3.3139
X2.6379Y-4.0058
X3.0599Y-1.9736
X3.1524Y-2.6762
X3.2449Y-3.3788
X3.8813Y-1.5057
X3.9043Y-2.214
X3.9274Y-2.9223
X4.6631Y-3.2547
X4.6631Y-1.8374
X4.6631Y-2.5461
X5.3914Y-2.6675
X5.3914Y-3.3761
X5.3914Y-1.9588
X5.4659Y-4.1256
X6.2148Y-4.433
X6.8585Y-4.9237
M30
