%TF.GenerationSoftware,KiCad,Pcbnew,8.0.6*%
%TF.CreationDate,2024-10-22T01:49:15-07:00*%
%TF.ProjectId,lintilla,6c696e74-696c-46c6-912e-6b696361645f,v1.0*%
%TF.SameCoordinates,Original*%
%TF.FileFunction,Paste,Bot*%
%TF.FilePolarity,Positive*%
%FSLAX46Y46*%
G04 Gerber Fmt 4.6, Leading zero omitted, Abs format (unit mm)*
G04 Created by KiCad (PCBNEW 8.0.6) date 2024-10-22 01:49:15*
%MOMM*%
%LPD*%
G01*
G04 APERTURE LIST*
G04 Aperture macros list*
%AMRotRect*
0 Rectangle, with rotation*
0 The origin of the aperture is its center*
0 $1 length*
0 $2 width*
0 $3 Rotation angle, in degrees counterclockwise*
0 Add horizontal line*
21,1,$1,$2,0,0,$3*%
G04 Aperture macros list end*
%ADD10RotRect,1.200000X1.200000X135.000000*%
%ADD11RotRect,1.200000X1.200000X187.500000*%
%ADD12R,2.600000X2.600000*%
%ADD13RotRect,1.200000X1.200000X182.500000*%
%ADD14RotRect,2.600000X2.600000X165.000000*%
%ADD15RotRect,2.600000X2.600000X135.000000*%
%ADD16RotRect,2.600000X2.600000X187.500000*%
%ADD17RotRect,1.200000X1.200000X192.500000*%
%ADD18RotRect,2.600000X2.600000X182.500000*%
%ADD19RotRect,2.600000X2.600000X192.500000*%
%ADD20R,1.200000X1.200000*%
%ADD21RotRect,1.200000X1.200000X165.000000*%
%ADD22RotRect,1.200000X1.200000X150.000000*%
%ADD23O,2.750000X1.800000*%
%ADD24R,2.750000X1.800000*%
%ADD25R,2.000000X2.000000*%
%ADD26R,0.900000X0.900000*%
%ADD27R,0.900000X1.250000*%
%ADD28C,2.000000*%
%ADD29RotRect,2.600000X2.600000X150.000000*%
%ADD30R,1.550000X1.000000*%
G04 APERTURE END LIST*
D10*
%TO.C,SW21*%
X179264031Y-124815247D03*
X176930579Y-122481795D03*
%TD*%
D11*
%TO.C,SW8*%
X82456891Y-65280525D03*
X79185123Y-65711261D03*
%TD*%
D12*
%TO.C,S16*%
X141455184Y-92941791D03*
X129905184Y-90741791D03*
%TD*%
D13*
%TO.C,SW6*%
X57650104Y-37554610D03*
X54353244Y-37698554D03*
%TD*%
D11*
%TO.C,SW9*%
X80107416Y-47434520D03*
X76835648Y-47865256D03*
%TD*%
D14*
%TO.C,S19*%
X141696913Y-112622347D03*
X131109871Y-107507950D03*
%TD*%
D15*
%TO.C,S21*%
X173554132Y-132823220D03*
X166942686Y-123100500D03*
%TD*%
D16*
%TO.C,S8*%
X85334092Y-74685434D03*
X73595748Y-74011832D03*
%TD*%
D17*
%TO.C,SW3*%
X69040445Y-98966288D03*
X65818669Y-99680538D03*
%TD*%
D18*
%TO.C,S11*%
X103940201Y-63275385D03*
X92305232Y-61581283D03*
%TD*%
D19*
%TO.C,S4*%
X68830471Y-90511314D03*
X57078087Y-90863340D03*
%TD*%
D12*
%TO.C,S13*%
X122955178Y-89858455D03*
X111405178Y-87658455D03*
%TD*%
D18*
%TO.C,S12*%
X103354856Y-45283793D03*
X91719887Y-43589691D03*
%TD*%
D20*
%TO.C,SW17*%
X139830187Y-65241791D03*
X136530187Y-65241791D03*
%TD*%
D21*
%TO.C,SW19*%
X142637824Y-102832286D03*
X139450268Y-101978186D03*
%TD*%
D22*
%TO.C,SW20*%
X162397989Y-111412801D03*
X159540105Y-109762801D03*
%TD*%
D23*
%TO.C,MCU1*%
X156060176Y-43371778D03*
X156060176Y-45911778D03*
X156060176Y-48451778D03*
X156060178Y-50991779D03*
X156060176Y-53531778D03*
X156060176Y-56071778D03*
X156060176Y-58611778D03*
X172300176Y-58611778D03*
X172300176Y-56071778D03*
X172300176Y-53531778D03*
X172300174Y-50991777D03*
X172300176Y-48451778D03*
D24*
X172300176Y-45911778D03*
D23*
X172300176Y-43371778D03*
%TD*%
D20*
%TO.C,SW15*%
X121330183Y-44158458D03*
X118030183Y-44158458D03*
%TD*%
D17*
%TO.C,SW5*%
X61248611Y-63819630D03*
X58026835Y-64533880D03*
%TD*%
D13*
%TO.C,SW10*%
X102478975Y-71647100D03*
X99182115Y-71791044D03*
%TD*%
D25*
%TO.C,PAD6*%
X154180190Y-104991788D03*
%TD*%
D26*
%TO.C,T2*%
X131480185Y-41341780D03*
X131480185Y-43541786D03*
X138880185Y-41341780D03*
X138880185Y-43541786D03*
D27*
X132930185Y-44516783D03*
X135930185Y-44516783D03*
X137430183Y-44516784D03*
%TD*%
D19*
%TO.C,S2*%
X48967132Y-86387796D03*
X37214748Y-86739822D03*
%TD*%
D17*
%TO.C,SW1*%
X49177104Y-94842765D03*
X45955328Y-95557015D03*
%TD*%
D12*
%TO.C,S15*%
X122955178Y-53858454D03*
X111405178Y-51658454D03*
%TD*%
D20*
%TO.C,SW16*%
X139830176Y-83241786D03*
X136530176Y-83241786D03*
%TD*%
D19*
%TO.C,S1*%
X52863044Y-103961109D03*
X41110660Y-104313135D03*
%TD*%
D11*
%TO.C,SW7*%
X84806365Y-83126538D03*
X81534597Y-83557274D03*
%TD*%
D28*
%TO.C,PAD2*%
X159180178Y-66991793D03*
%TD*%
D20*
%TO.C,SW13*%
X121330183Y-80158460D03*
X118030183Y-80158460D03*
%TD*%
D19*
%TO.C,S5*%
X64934561Y-72937996D03*
X53182177Y-73290022D03*
%TD*%
D28*
%TO.C,PAD4*%
X169180184Y-66991786D03*
%TD*%
D18*
%TO.C,S10*%
X104525539Y-81266983D03*
X92890570Y-79572881D03*
%TD*%
%TO.C,S6*%
X59696661Y-47174486D03*
X48061692Y-45480384D03*
%TD*%
D12*
%TO.C,S18*%
X141455181Y-56941783D03*
X129905181Y-54741783D03*
%TD*%
D29*
%TO.C,S20*%
X158955270Y-120625742D03*
X150052677Y-112945486D03*
%TD*%
D13*
%TO.C,SW11*%
X101893645Y-53655506D03*
X98596785Y-53799450D03*
%TD*%
D19*
%TO.C,S3*%
X72726384Y-108084652D03*
X60974000Y-108436678D03*
%TD*%
D28*
%TO.C,PAD5*%
X150180179Y-95991791D03*
%TD*%
D30*
%TO.C,B2*%
X114055184Y-38558455D03*
X119305184Y-38558455D03*
X114055184Y-40258455D03*
X119305184Y-40258455D03*
%TD*%
D12*
%TO.C,S14*%
X122955182Y-71858459D03*
X111405182Y-69658459D03*
%TD*%
D13*
%TO.C,SW12*%
X101308304Y-35663912D03*
X98011444Y-35807856D03*
%TD*%
D20*
%TO.C,SW14*%
X121330189Y-62158456D03*
X118030189Y-62158456D03*
%TD*%
D12*
%TO.C,S17*%
X141455188Y-74941794D03*
X129905188Y-72741794D03*
%TD*%
D16*
%TO.C,S9*%
X82984618Y-56839431D03*
X71246274Y-56165829D03*
%TD*%
%TO.C,S7*%
X87683561Y-92531437D03*
X75945217Y-91857835D03*
%TD*%
D17*
%TO.C,SW4*%
X65144517Y-81392972D03*
X61922741Y-82107222D03*
%TD*%
%TO.C,SW2*%
X45281189Y-77269431D03*
X42059413Y-77983681D03*
%TD*%
D20*
%TO.C,SW18*%
X139830188Y-47241786D03*
X136530188Y-47241786D03*
%TD*%
M02*
