M48
; DRILL file {KiCad 8.0.5} date 2024-09-24T01:01:39-0700
; FORMAT={-:-/ absolute / inch / decimal}
; #@! TF.CreationDate,2024-09-24T01:01:39-07:00
; #@! TF.GenerationSoftware,Kicad,Pcbnew,8.0.5
; #@! TF.FileFunction,Plated,1,2,PTH
FMAT,2
INCH
; #@! TA.AperFunction,Plated,PTH,ComponentDrill
T1C0.0118
; #@! TA.AperFunction,Plated,PTH,ComponentDrill
T2C0.0157
; #@! TA.AperFunction,Plated,PTH,ComponentDrill
T3C0.0866
%
G90
G05
T1
X1.4164Y-3.3662
X1.5698Y-4.0581
X1.6071Y-3.0215
X1.734Y-2.9934
X1.7605Y-3.7133
X1.8434Y-1.7418
X1.8791Y-3.3523
X1.8873Y-3.6852
X2.0325Y-4.0442
X2.045Y-2.8367
X2.0911Y-1.4354
X2.1984Y-3.5285
X2.2209Y-1.4298
X2.2358Y-2.492
X2.3015Y-1.8085
X2.3518Y-4.2204
X2.3626Y-2.4638
X2.3891Y-3.1838
X2.5077Y-2.8228
X2.516Y-3.1557
X2.5425Y-3.8757
X2.6611Y-3.5147
X2.6694Y-3.8476
X2.7562Y-2.1625
X2.8145Y-4.2066
X2.8487Y-2.8651
X2.9412Y-3.5677
X2.9763Y-1.8357
X3.0688Y-2.5383
X3.1051Y-1.8188
X3.1613Y-3.2409
X3.1976Y-2.5214
X3.2183Y-2.189
X3.2901Y-3.2239
X3.3108Y-2.8916
X3.4033Y-3.5942
X3.5623Y-1.6674
X3.5853Y-2.3757
X3.6083Y-3.084
X3.81Y-1.361
X3.833Y-2.0693
X3.856Y-2.7777
X3.9398Y-1.3553
X3.9628Y-2.0637
X3.9858Y-2.772
X4.0203Y-1.7341
X4.0434Y-2.4424
X4.0664Y-3.1507
X4.3373Y-3.4024
X4.3373Y-1.985
X4.3373Y-2.6937
X4.4416Y-1.4693
X4.4416Y-1.4693
X4.4416Y-1.5362
X4.4416Y-1.5362
X4.5981Y-2.3984
X4.5981Y-3.1071
X4.5981Y-1.6898
X4.6483Y-1.4693
X4.6483Y-1.4693
X4.6483Y-1.5362
X4.6483Y-1.5362
X4.728Y-2.3984
X4.728Y-3.1071
X4.728Y-1.6898
X4.792Y-3.489
X4.792Y-2.0717
X4.792Y-2.7803
X5.0272Y-2.5658
X5.0272Y-3.7305
X5.0656Y-2.8151
X5.0656Y-3.5238
X5.0656Y-2.1064
X5.113Y-4.1838
X5.1847Y-1.7039
X5.2438Y-1.7039
X5.3028Y-1.7039
X5.3264Y-3.2285
X5.3264Y-2.5198
X5.3264Y-1.8112
X5.3619Y-1.7039
X5.4414Y-3.9661
X5.4564Y-3.2285
X5.4564Y-2.5198
X5.4564Y-1.8112
X5.5203Y-2.9017
X5.5203Y-3.6104
X5.5203Y-2.1931
X5.5299Y-4.3852
X5.5669Y-3.9998
X5.7556Y-2.6281
X5.8245Y-2.2088
X5.8245Y-2.3088
X5.8363Y-2.1088
X5.8363Y-2.3588
X5.8481Y-2.0088
X5.8481Y-2.4088
X5.8588Y-4.3979
X5.8599Y-1.9088
X5.8599Y-2.4588
X5.8638Y-3.8683
X5.8638Y-3.7305
X5.8717Y-1.8588
X5.8717Y-2.5088
X5.982Y-1.9588
X5.982Y-1.8588
X5.982Y-2.0588
X5.982Y-2.1588
X5.982Y-2.2588
X5.982Y-1.8088
X6.0213Y-2.0088
X6.0213Y-2.2088
X6.0213Y-1.9088
X6.0213Y-2.1088
X6.0953Y-2.323
X6.1001Y-2.6183
X6.1001Y-2.5592
X6.2093Y-4.7003
X6.2323Y-4.2726
X6.3449Y-4.3376
X6.415Y-2.5887
X6.5238Y-4.7977
X6.7841Y-5.1805
X6.917Y-4.7734
X7.0089Y-4.8652
T2
X2.5691Y-1.3259
X2.5861Y-1.2792
X2.5901Y-1.371
X2.6312Y-1.2582
X2.6368Y-1.388
X2.6779Y-1.2752
X2.6819Y-1.367
X2.6989Y-1.3202
X3.0965Y-4.1461
X3.1051Y-4.0971
X3.125Y-4.1868
X3.1458Y-4.0686
X3.1739Y-4.1954
X3.1948Y-4.0772
X3.2147Y-4.1669
X3.2233Y-4.1179
X5.8087Y-1.7226
X5.8278Y-1.6766
X5.8278Y-1.7685
X5.8737Y-1.6576
X5.8737Y-1.7875
X5.9196Y-1.6766
X5.9196Y-1.7685
X5.9386Y-1.7226
X6.7128Y-4.3644
X6.7193Y-4.3151
X6.743Y-4.4038
X6.7587Y-4.2848
X6.7923Y-4.4103
X6.808Y-4.2913
X6.8318Y-4.38
X6.8383Y-4.3307
T3
X2.634Y-1.3231
X3.1599Y-4.132
X5.8737Y-1.7226
X6.7755Y-4.3476
M30
