M48
; DRILL file {KiCad 8.0.6} date 2024-10-22T01:48:53-0700
; FORMAT={-:-/ absolute / inch / decimal}
; #@! TF.CreationDate,2024-10-22T01:48:53-07:00
; #@! TF.GenerationSoftware,Kicad,Pcbnew,8.0.6
; #@! TF.FileFunction,NonPlated,1,2,NPTH
FMAT,2
INCH
; #@! TA.AperFunction,NonPlated,NPTH,ComponentDrill
T1C0.0295
; #@! TA.AperFunction,NonPlated,NPTH,ComponentDrill
T2C0.0354
; #@! TA.AperFunction,NonPlated,NPTH,ComponentDrill
T3C0.0670
; #@! TA.AperFunction,NonPlated,NPTH,ComponentDrill
T4C0.1181
; #@! TA.AperFunction,NonPlated,NPTH,ComponentDrill
T5C0.1350
%
G90
G05
T1
X4.5937Y-1.4974
X4.5937Y-1.4974
X4.5937Y-1.6056
X4.5937Y-1.6056
T2
X5.263Y-1.6709
X5.3811Y-1.6709
T3
X1.5399Y-3.2472
X1.6932Y-3.939
X1.9627Y-3.1534
X1.9949Y-1.6383
X2.116Y-3.8453
X2.1685Y-2.7176
X2.3219Y-3.4095
X2.4276Y-1.6194
X2.4753Y-4.1014
X2.5913Y-2.6239
X2.7447Y-3.3158
X2.894Y-2.0506
X2.8981Y-4.0076
X2.9865Y-2.7532
X3.079Y-3.4558
X3.3234Y-1.9941
X3.4159Y-2.6967
X3.5084Y-3.3993
X3.7137Y-1.5639
X3.7368Y-2.2722
X3.7598Y-2.9805
X4.1464Y-1.545
X4.1694Y-2.2533
X4.1925Y-2.9616
X4.4953Y-1.8862
X4.4953Y-3.3035
X4.4953Y-2.5948
X4.9284Y-1.8862
X4.9284Y-3.3035
X4.9284Y-2.5948
X5.2236Y-2.0076
X5.2236Y-3.4249
X5.2236Y-2.7162
X5.3055Y-4.1183
X5.6567Y-2.0076
X5.6567Y-3.4249
X5.6567Y-2.7162
X5.7239Y-4.2304
X6.076Y-4.3734
X6.4511Y-4.59
X6.7542Y-4.8193
X7.0604Y-5.1256
T4
X1.591Y-3.387
X1.7444Y-4.0789
X1.802Y-3.429
X1.9553Y-4.1209
X1.9754Y-3.3018
X2.021Y-1.7849
X2.1288Y-3.9937
X2.2197Y-2.8575
X2.2214Y-1.8629
X2.373Y-3.5494
X2.4143Y-1.7678
X2.4306Y-2.8995
X2.5264Y-4.2413
X2.584Y-3.5913
X2.604Y-2.7723
X2.7374Y-4.2832
X2.7574Y-3.4642
X2.9108Y-4.156
X2.9328Y-2.1944
X3.0253Y-2.897
X3.1178Y-3.5996
X3.1393Y-2.2546
X3.2318Y-2.9572
X3.3231Y-2.143
X3.3243Y-3.6598
X3.4156Y-2.8456
X3.5081Y-3.5482
X3.7398Y-1.7105
X3.7629Y-2.4188
X3.7859Y-3.1272
X3.9403Y-1.7885
X3.9633Y-2.4968
X3.9864Y-3.2051
X4.1332Y-1.6933
X4.1562Y-2.4017
X4.1792Y-3.11
X4.515Y-2.0338
X4.515Y-3.4511
X4.515Y-2.7425
X4.7118Y-2.1204
X4.7118Y-3.5377
X4.7118Y-2.8291
X4.9087Y-2.0338
X4.9087Y-3.4511
X4.9087Y-2.7425
X5.2433Y-2.1552
X5.2433Y-3.5725
X5.2433Y-2.8639
X5.2863Y-4.266
X5.4402Y-2.2418
X5.4402Y-3.6591
X5.4402Y-2.9505
X5.4541Y-4.4006
X5.637Y-2.1552
X5.637Y-3.5725
X5.637Y-2.8639
X5.6666Y-4.3679
X6.0192Y-4.5111
X6.1464Y-4.6846
X6.3602Y-4.708
X6.6637Y-4.9376
X6.7417Y-5.1381
X6.9421Y-5.216
T5
X1.7513Y-3.2003
X1.9046Y-3.8922
X2.2112Y-1.6289
X2.3799Y-2.6708
X2.5333Y-3.3626
X2.6867Y-4.0545
X3.1087Y-2.0224
X3.2012Y-2.725
X3.2937Y-3.4276
X3.9301Y-1.5544
X3.9531Y-2.2628
X3.9761Y-2.9711
X4.7118Y-1.8862
X4.7118Y-3.3035
X4.7118Y-2.5948
X5.4402Y-2.0076
X5.4402Y-3.4249
X5.4402Y-2.7162
X5.5147Y-4.1743
X6.2635Y-4.4817
X6.9073Y-4.9724
M30
