%TF.GenerationSoftware,KiCad,Pcbnew,8.0.5*%
%TF.CreationDate,2024-09-24T00:59:07-07:00*%
%TF.ProjectId,lintilla,6c696e74-696c-46c6-912e-6b696361645f,v0.1*%
%TF.SameCoordinates,Original*%
%TF.FileFunction,Paste,Bot*%
%TF.FilePolarity,Positive*%
%FSLAX46Y46*%
G04 Gerber Fmt 4.6, Leading zero omitted, Abs format (unit mm)*
G04 Created by KiCad (PCBNEW 8.0.5) date 2024-09-24 00:59:07*
%MOMM*%
%LPD*%
G01*
G04 APERTURE LIST*
G04 Aperture macros list*
%AMRotRect*
0 Rectangle, with rotation*
0 The origin of the aperture is its center*
0 $1 length*
0 $2 width*
0 $3 Rotation angle, in degrees counterclockwise*
0 Add horizontal line*
21,1,$1,$2,0,0,$3*%
G04 Aperture macros list end*
%ADD10RotRect,2.600000X2.600000X187.500000*%
%ADD11RotRect,2.600000X2.600000X182.500000*%
%ADD12RotRect,0.900000X1.200000X182.500000*%
%ADD13C,2.000000*%
%ADD14RotRect,2.600000X2.600000X150.000000*%
%ADD15R,2.600000X2.600000*%
%ADD16R,0.900000X1.200000*%
%ADD17O,2.750000X1.800000*%
%ADD18R,2.750000X1.800000*%
%ADD19RotRect,2.600000X2.600000X165.000000*%
%ADD20R,2.000000X2.000000*%
%ADD21RotRect,2.600000X2.600000X135.000000*%
%ADD22RotRect,2.600000X2.600000X192.500000*%
%ADD23RotRect,0.900000X1.200000X192.500000*%
%ADD24R,0.900000X0.900000*%
%ADD25R,0.900000X1.250000*%
%ADD26RotRect,0.900000X1.200000X135.000000*%
%ADD27RotRect,0.900000X1.200000X165.000000*%
%ADD28RotRect,0.900000X1.200000X150.000000*%
%ADD29RotRect,0.900000X1.200000X187.500000*%
%ADD30R,1.550000X1.000000*%
G04 APERTURE END LIST*
D10*
%TO.C,S7*%
X86444990Y-91293205D03*
X74706649Y-90619604D03*
%TD*%
D11*
%TO.C,S12*%
X102116290Y-44045563D03*
X90481321Y-42351461D03*
%TD*%
D12*
%TO.C,SW10*%
X101240412Y-70408858D03*
X97943552Y-70552802D03*
%TD*%
D13*
%TO.C,PAD5*%
X167941614Y-65753546D03*
%TD*%
D14*
%TO.C,S20*%
X157716704Y-119387505D03*
X148814111Y-111707249D03*
%TD*%
D15*
%TO.C,S13*%
X121716607Y-88620220D03*
X110166607Y-86420220D03*
%TD*%
D12*
%TO.C,SW6*%
X56411536Y-36316364D03*
X53114676Y-36460308D03*
%TD*%
D16*
%TO.C,SW16*%
X138591608Y-82003556D03*
X135291608Y-82003556D03*
%TD*%
D17*
%TO.C,MCU1*%
X154821611Y-42133547D03*
X154821611Y-44673547D03*
X154821611Y-47213547D03*
X154821615Y-49753546D03*
X154821611Y-52293547D03*
X154821611Y-54833547D03*
X154821611Y-57373547D03*
X171061611Y-57373547D03*
X171061611Y-54833547D03*
X171061611Y-52293547D03*
X171061607Y-49753548D03*
X171061611Y-47213547D03*
D18*
X171061611Y-44673547D03*
D17*
X171061611Y-42133547D03*
%TD*%
D19*
%TO.C,S19*%
X140458343Y-111384109D03*
X129871301Y-106269712D03*
%TD*%
D20*
%TO.C,PAD3*%
X162941611Y-65753545D03*
%TD*%
D10*
%TO.C,S8*%
X84095514Y-73447199D03*
X72357173Y-72773598D03*
%TD*%
D16*
%TO.C,SW18*%
X138591611Y-46003553D03*
X135291611Y-46003553D03*
%TD*%
D21*
%TO.C,S21*%
X172315562Y-131584986D03*
X165704115Y-121862266D03*
%TD*%
D12*
%TO.C,SW11*%
X100655067Y-52417267D03*
X97358207Y-52561211D03*
%TD*%
D10*
%TO.C,S9*%
X81746041Y-55601192D03*
X70007700Y-54927591D03*
%TD*%
D11*
%TO.C,S11*%
X102701630Y-62037152D03*
X91066661Y-60343050D03*
%TD*%
D22*
%TO.C,S5*%
X63695986Y-71699748D03*
X51943605Y-72051775D03*
%TD*%
D23*
%TO.C,SW4*%
X63905956Y-80154731D03*
X60684180Y-80868981D03*
%TD*%
D22*
%TO.C,S1*%
X51624475Y-102722872D03*
X39872094Y-103074899D03*
%TD*%
D23*
%TO.C,SW2*%
X44042622Y-76031195D03*
X40820846Y-76745445D03*
%TD*%
%TO.C,SW5*%
X60010041Y-62581403D03*
X56788265Y-63295653D03*
%TD*%
D16*
%TO.C,SW17*%
X138591610Y-64003550D03*
X135291610Y-64003550D03*
%TD*%
D22*
%TO.C,S2*%
X47728561Y-85149541D03*
X35976180Y-85501568D03*
%TD*%
D11*
%TO.C,S6*%
X58458093Y-45936260D03*
X46823124Y-44242158D03*
%TD*%
D15*
%TO.C,S17*%
X140216610Y-73703540D03*
X128666610Y-71503540D03*
%TD*%
D13*
%TO.C,PAD2*%
X157941614Y-65753557D03*
%TD*%
D22*
%TO.C,S3*%
X71487802Y-106846407D03*
X59735421Y-107198434D03*
%TD*%
D15*
%TO.C,S18*%
X140216613Y-55703554D03*
X128666613Y-53503554D03*
%TD*%
D11*
%TO.C,S10*%
X103286975Y-80028737D03*
X91652006Y-78334635D03*
%TD*%
D20*
%TO.C,PAD7*%
X148941611Y-94753547D03*
%TD*%
D24*
%TO.C,T2*%
X130241611Y-40103552D03*
X130241611Y-42303558D03*
X137641611Y-40103552D03*
X137641611Y-42303558D03*
D25*
X131691611Y-43278555D03*
X134691611Y-43278555D03*
X136191607Y-43278557D03*
%TD*%
D15*
%TO.C,S15*%
X121716609Y-52620226D03*
X110166609Y-50420226D03*
%TD*%
D26*
%TO.C,SW21*%
X178025461Y-123576992D03*
X175692009Y-121243540D03*
%TD*%
D27*
%TO.C,SW19*%
X141399259Y-101594053D03*
X138211703Y-100739953D03*
%TD*%
D16*
%TO.C,SW13*%
X120091612Y-78920219D03*
X116791612Y-78920219D03*
%TD*%
D28*
%TO.C,SW20*%
X161159415Y-110174552D03*
X158301531Y-108524552D03*
%TD*%
D16*
%TO.C,SW15*%
X120091614Y-42920219D03*
X116791614Y-42920219D03*
%TD*%
D23*
%TO.C,SW3*%
X67801867Y-97728055D03*
X64580091Y-98442305D03*
%TD*%
D29*
%TO.C,SW7*%
X83567791Y-81888290D03*
X80296023Y-82319026D03*
%TD*%
D30*
%TO.C,B2*%
X112816617Y-37320230D03*
X118066617Y-37320230D03*
X112816617Y-39020230D03*
X118066617Y-39020230D03*
%TD*%
D13*
%TO.C,PAD6*%
X148941610Y-98253556D03*
%TD*%
D15*
%TO.C,S14*%
X121716611Y-70620223D03*
X110166611Y-68420223D03*
%TD*%
%TO.C,S16*%
X140216610Y-91703555D03*
X128666610Y-89503555D03*
%TD*%
D12*
%TO.C,SW12*%
X100069730Y-34425666D03*
X96772870Y-34569610D03*
%TD*%
D22*
%TO.C,S4*%
X67591898Y-89273075D03*
X55839517Y-89625102D03*
%TD*%
D16*
%TO.C,SW14*%
X120091610Y-60920230D03*
X116791610Y-60920230D03*
%TD*%
D29*
%TO.C,SW9*%
X78868849Y-46196281D03*
X75597081Y-46627017D03*
%TD*%
D23*
%TO.C,SW1*%
X47938533Y-93604530D03*
X44716757Y-94318780D03*
%TD*%
D29*
%TO.C,SW8*%
X81218310Y-64042299D03*
X77946542Y-64473035D03*
%TD*%
M02*
